<?xml version="1.0" encoding="UTF-8"?>
<svg id="Layer_1" data-name="Layer 1" xmlns="http://www.w3.org/2000/svg" viewBox="0 0 120 40">
  <defs>
    <style>
      .cls-1 {
        fill: #1b1464;
        font-family: BodoniMT-Bold, 'Bodoni MT';
        font-size: 40.39px;
        font-weight: 700;
      }

      .cls-2 {
        fill: #ed1c24;
        stroke-width: 0px;
      }

      .cls-3 {
        letter-spacing: 0em;
      }

      .cls-4 {
        letter-spacing: -.12em;
      }
    </style>
  </defs>
  <g>
    <g>
      <path class="cls-2" d="m11.14,19.96h0s0,0,0,0h0Z"/>
      <path class="cls-2" d="m9.56,19.96h0s0,0,0,0h0Zm1.58,0h0s0,0,0,0l1.14,1.09h0l-1.14-1.09Zm8.85-11.54v.03l.02-.02-.02-.02Z"/>
      <path class="cls-2" d="m32.65-.04H7.35C3.29-.04,0,3.25,0,7.31v26.74c0,3.27,2.65,5.91,6.38,5.99h28.17c2.8-.08,5.45-2.73,5.45-5.99V7.31C40,3.25,36.71-.04,32.65-.04Zm-11.57,16.08c0-1.27,1.54-1.91,2.44-1.01l3.92,3.92,1.01,1.01-4.93,4.93c-.9.9-2.44.26-2.44-1.01v-7.83ZM2.18,7.31c0-2.85,2.31-5.17,5.17-5.17h5.48c1.27,0,1.91,1.54,1.01,2.44L4.62,13.8c-.9.9-2.44.26-2.44-1.01v-5.48Zm4.23,30.55c-2.45-.06-4.23-1.66-4.23-3.81v-11.57c0-.79.64-1.43,1.43-1.43h3.44c.79,0,1.43.64,1.43,1.43v8.54c0,3.26,2.21,6.01,5.21,6.84,0,0,0,0,0,0h-7.29Zm3.16-17.9h0s0,0,0,0Zm7.92,15.97h-.48c-3.5,0-6.34-2.84-6.34-6.34v-7.08l7.79,7.47.02.02c.28.27.44.64.44,1.03v3.47c0,.79-.64,1.43-1.43,1.43Zm1.43-11.88c0,1.26-1.51,1.9-2.42,1.03l-4.21-4.04-1.14-1.09h0s1.13-1.09,1.13-1.09l4.21-4.04c.91-.87,2.42-.23,2.42,1.03v8.19Zm0-15.17c0,.39-.16.76-.44,1.03l-8.9,8.53h0c-.28.27-.66.42-1.06.42h0c-2.17,0-3.26-2.62-1.72-4.16l9.68-9.68c.9-.9,2.44-.26,2.44,1.01v2.84Zm1.09-.43v-.03l.02.02-.02.02Zm1.51,21.54l8.45-8.45c.27-.27.63-.42,1.01-.42h2.93c1.28,0,1.91,1.54,1.01,2.44l-11.38,11.33c-.9.9-2.44.26-2.44-1.01v-2.89c0-.38.15-.74.42-1.01Zm16.31,4.05c0,2.12-1.74,3.75-3.3,3.81h-7.4c-1.28,0-1.91-1.54-1.01-2.44l9.27-9.24c.9-.9,2.44-.26,2.44,1.01v6.85Zm-1.43-15.1h-5.27c-.38,0-.74-.15-1.01-.42l-8.6-8.6c-.27-.27-.42-.63-.42-1.01V3.57c0-.79.64-1.43,1.43-1.43h10.13c2.85,0,5.17,2.31,5.17,5.17v10.21c0,.79-.64,1.43-1.43,1.43Z"/>
    </g>
    <path class="cls-2" d="m19.99,19.98v.03l.02-.02-.02-.02Z"/>
  </g>
  <text class="cls-1" transform="translate(47.91 31.52) scale(.97 1)"><tspan class="cls-4" x="0" y="0">F</tspan><tspan class="cls-3" x="19.11" y="0">AS</tspan></text>
</svg>